<svg xmlns="http://www.w3.org/2000/svg" width="59.249" height="60.391" viewBox="0 0 59.249 60.391"><g transform="translate(0 0)"><path d="M57.292,88.261a1.142,1.142,0,0,0,1.562-.411,20.1,20.1,0,0,1,2.145-3,1.143,1.143,0,1,0-1.729-1.494,22.364,22.364,0,0,0-2.39,3.344,1.142,1.142,0,0,0,.411,1.562Zm0,0" transform="translate(-47.309 -69.076)" fill="#ea4e4e"/><path d="M116.829,116.4a1.14,1.14,0,0,0,.808-.335l8.436-8.437a1.141,1.141,0,0,0,.335-.807V94.772a1.143,1.143,0,1,0-2.285,0v11.579l-8.1,8.1a1.142,1.142,0,0,0,.807,1.95Zm0,0" transform="translate(-96.404 -77.962)" fill="#ea4e4e"/><path d="M55.559,40.855a28.567,28.567,0,0,0,2.615-11.993A28.863,28.863,0,1,0,39.791,55.754a10.957,10.957,0,1,0,15.767-14.9ZM29.312,55.44A26.577,26.577,0,1,1,55.889,28.862a26.3,26.3,0,0,1-2.275,10.756,10.879,10.879,0,0,0-4.186-1.126A22.31,22.31,0,0,0,17.759,9.764a1.142,1.142,0,1,0,1.183,1.954A20.035,20.035,0,0,1,46.8,38.639a10.984,10.984,0,0,0-8.728,8.251c-.008,0-.017,0-.025.007A20.038,20.038,0,0,1,9.411,26.533a1.142,1.142,0,1,0-2.269-.265A22.32,22.32,0,0,0,26.716,51.031a22.493,22.493,0,0,0,2.613.153,22.235,22.235,0,0,0,8.439-1.666,10.89,10.89,0,0,0,.886,4.23,26.417,26.417,0,0,1-9.343,1.692Zm19.42,2.667a8.682,8.682,0,1,1,8.682-8.682A8.692,8.692,0,0,1,48.732,58.107Zm0,0" transform="translate(-0.45 0)" fill="#ea4e4e"/><path d="M264.88,263.217l-.765-.894a4.066,4.066,0,0,1-.979-2.646v-.622a4.623,4.623,0,0,0-4.069-4.632,4.509,4.509,0,0,0-4.947,4.487v1.024a4.042,4.042,0,0,1-.757,2.364l-.712,1a1.142,1.142,0,0,0,.929,1.806h3.9v.725a1.142,1.142,0,0,0,2.285,0V265.1h4.246a1.142,1.142,0,0,0,.867-1.885Zm-9.166-.4a6.31,6.31,0,0,0,.691-2.883v-1.024a2.231,2.231,0,0,1,.728-1.647,2.2,2.2,0,0,1,1.717-.566,2.32,2.32,0,0,1,2,2.357v.622a6.359,6.359,0,0,0,.831,3.14Zm0,0" transform="translate(-210.271 -211.834)" fill="#ea4e4e"/></g></svg>